<mxfile host="app.diagrams.net" agent="Mozilla/5.0 (Windows NT 10.0; Win64; x64) AppleWebKit/537.36 (KHTML, like Gecko) Chrome/141.0.0.0 Safari/537.36" version="28.2.8">
  <diagram name="Strona-1" id="e4meBoIaLH29Oetq1Dep">
    <mxGraphModel dx="946" dy="563" grid="1" gridSize="10" guides="1" tooltips="1" connect="1" arrows="1" fold="1" page="1" pageScale="1" pageWidth="827" pageHeight="1169" math="0" shadow="0">
      <root>
        <mxCell id="0" />
        <mxCell id="1" parent="0" />
        <mxCell id="nycNDMPn0zWhorsji3h1-22" value="&lt;font data-font-src=&quot;https://fonts.googleapis.com/css?family=Poppins&quot;&gt;Synergy Layer&lt;/font&gt;" style="rounded=1;whiteSpace=wrap;html=1;dashed=1;dashPattern=8 8;arcSize=3;verticalAlign=top;align=left;fontFamily=Poppins;fontSource=https%3A%2F%2Ffonts.googleapis.com%2Fcss%3Ffamily%3DPoppins;spacingLeft=4;" vertex="1" parent="1">
          <mxGeometry x="110" y="710" width="540" height="520" as="geometry" />
        </mxCell>
        <mxCell id="nycNDMPn0zWhorsji3h1-23" value="" style="rounded=1;whiteSpace=wrap;html=1;fillColor=#E6FFCC;strokeColor=none;" vertex="1" parent="1">
          <mxGeometry x="300" y="720" width="160" height="150" as="geometry" />
        </mxCell>
        <mxCell id="nycNDMPn0zWhorsji3h1-24" value="Kafka" style="shape=image;verticalLabelPosition=middle;labelBackgroundColor=none;verticalAlign=middle;aspect=fixed;imageAspect=0;image=data:image/png,iVBORw0KGgoAAAANSUhEUgAAAQAAAAEACAYAAABccqhmAAAACXBIWXMAAAsSAAALEgHS3X78AAAZUklEQVR42u2debSWxZHGS4JoxBU1QHCLCgbEgPuuI7gAgwoG4aDijg4RcHfihuMSg7iMK2rQEBR3jfsWDMR1BMVdA0YRXFBBNhGRRZx+7L4zNzcX7uV+1W93v/38zqm/OOfS3V9Vvd3V1VUiRJu1jexj5FQjI4w8Y2SSkS+NzDPyjZE5Rj4x8rqRB41cZeQYI+2NrMolJCQdVjHySyPnGHnRyEIjP1QgM4zca6SfkfW4vITESVMj/Y2MN/J9hUa/PMFu4Q4jezhHQwiJYIuPr/0Xnoy+Nllm5CUj3Yw04k9ASPE0dl/8zws0/NocwTgj2/LnIKQ4tjbyQkDDrymLjVxuZA3+NIT4A+fu37iz+A8RyptGtuHPRIg++LreFqnhV5f5Rvrw5yJEjw0j2/LXJUuNnC28KSCkYloaeSsh468eILyMToCQyr78KRp/dbmUToCQhp35X0rc+Kt2Aifz5ySk/iC55o4SGH+VLDHSlT8rIfVjcImMv0q+MrIZf1pCVkwHI9+W0AFAkDXYmD8xIbWDp7cTSmr8VTKQPzMhtTOw5MYPmSv2apMQUo1mRmZ6Nj687b/PyJlGeop91ruzkU5i3/sPNfK8kUWexzGCPzch/8zFnowNtQGeMtLdyGr1HEsLI6cZ+cjTmOBgtuJPTohlXSOzPRjaa0b2rGBcqztH8DV3AYT442QPX/3LV+KLXxetjbyqPMYFRn7Gn57kDpJ+3hbdt/nHehjnmkYeVXYCp/PnJ7mzvfKX/xiPY13dxRM0jyh8J0Cy5vei+/CmiHjFJEWHxWAgyRZ8/d5UMiZUA25S0Lh3dkcNjXHzoRDJFly3LRGdAhw7FTz24UoO4BGqAcmVg5WM6MEAY28lOm8WUM6c7wNIllyg5AD2CTT+20WnXsAmVAWSI/cqGNDHAb+gXZUcWBeqAsmRVxSM548Bx4/cAI0S5QOoCiRHPlUwnhMDz0Hj+fLFVAWSG0jTnadgPJ0Cz2O0whyGUx1IbqCbr0YUvX3geVytMIeRVAeSG2uJzrv70Jl0wxTmcBvVgeTGGko7gI6B53GdpB3IJCQIqP+nUQOgW+B53K8wh2upDiRHpioYzxkBx4+3DO8pzGEIVYHkiEbDzwcDjr+56DwKOoaqQHLkT6JTZbdpoPEfJTqZgHtSFUiOnKFkQEcEGv9Y0WkbxtJgJEv2UXIAqNf3k4LHvoPYgh6Vjv1DYVUgkilri14bsL4FjhsG+xelcY+iGpCcGadkSNML3Eprnf0h/agCJGdOUzSmJ8TmF/gEqcfzlMb7ndibBEKyZTPRKQtWJTd7jAdsamSK4lif5s9PiMgY0a23j8c1qymPsZ2y8RcdtyAkWg4R/dZbLxrZQmFsCPgdZmSO8vg+N/LTxH6nRi7OghuQHmIbsKCj8ylGTjJytNgejHifsb7wdoPUE5zbJ3twAvONnC/2tqEhbGPkMbF1+7THdn4CvwvKrO/mxvqk2EBrfa8+caybKjZTE3GeDlL8VS1JiGM8GFmVoO34Ve7LVVf9wHWM9HKGv9TTeGaJbYce61d+TxdL+VJxzsvcEepy51gJ+ZddwNsenUD1Mtz4ml3nvmy/FVuSC09yUd7r2wLG8J8Rrj+OI8cX9BtgF/GckZ7cFZDq7Cc62XUxy+TIzv7YER1n5KNA6/GGixswXkB+5LYSG//3zsnFwi5GJkawLsvcrmxLqj9B9HhaSR3ADZGsMbocXya6+RdaQduBLg5BMmZv0akXGJO8LrYMWmg2E51S5j4FNwfr0QzyZrD4uX4LITMi2d4iuv9lImv2Ho8EeYOg0DUlMP4FRvaKYD2RuPNtYmuHG5vtaQr5giuiUQkbPx77HBTBOvZK+EiFnIkdaQr5gmuqWxP98sdg/F2cI0r9CNWOppAviApfmlBMYKYLZIYG6bdzSxJHQeUkPp3OHBTP+CZyRUViS+sI1grXqf+Qct2k/FX813sgkYOCHK9LnEk+N4ltGR5DAPV+KWcuxYU0AYK3/v8l8US1sT3tGtH6HCXlzaZEH4ZdaAIEtDFyn4R7P4Dz9XkSri9BbTR3MYgyv6fAMasJ1Z9UsYNzBIuluCDfJUY2jHAtbi5oDRCL+buRZ8VWSH7eyAdS3I3DIKo9qckv3BnRR/BriVP2YyM559dGO89OENl56GO4k9T+ohGxBxRfQb8HvPv/1ONYkNG4DlWe1AYSiLYT+97/+QqUbLoLpp1oZOME5n2nJ2Ob4GIcK/t2H7GaI93OwMe4zqaqk7poXYGCbZ3Y7kc72w/b/JOk8qIdeAQ1VPRfH34m6dVVJAk5gJSyzy5VNi4UCOmgPMZuol9c9TCqOMndAayqfN6e7PHIg7z+WaKbHERI1g6gk3JwbQvP4/030bstQNCzFdWc5OwAtJ5Nowpyl4LGfKqi0+pPNSe5OgBcvU1SMqQRBY4bgcUXlMZ9P9Wc5OoAWopO/4KvjbQoeOxoOqKRxTldWF6cZOoADlT6il4baPcyVmHseCa+OVWd5OgAzlUyoA6Bxn+YkgM7mKpOcnQAIxWM530J15gD1X8XKszhdKo6ydEBaGyhbw08h/EKc7ieqk5ydADvKBjP4MBzGKEwh3uo6iQ3B4Btu0YXpZ6B53GewhyepKqT3BwAiqVOVzCeToHnMViYEkzoAII5gH0Dz+MUhTmMoaqTHGMAGm29eweew0UKc3iMqk5ydABvKBjPbwPPYbTCHO6gqpMcHcATCsZzb+A5vKcwh6uo6qQ22legVGjqGXuO+Y0KxoMmnKEabmwiOm8ZTqKqE7ChO9MiMWSiVNZJaJkzDlwxIeV2d7F17mJCI4IO6Rxo/KcojX9fqn6+tHKG8Jz474I7051ZD4rEGewl6T6pRePXd0WnjkELmkFeYGv+70YekXCtrz8XW/56y4DrgDLcGh2SULCz6AdBfZR+B5SBX4UmkQfoCHOM0pdDs10VvqDbBVoTrcIaSKZpVNCY1xKdK0zILTSL8tPIne3fj8jwa9uKwhFsVeC6bGDkRcU5nFLAmFdxRqs15l40j3LTwZ3vU+ldh4KXw9xXzif7G/lEeew4Tu3nedwDxQZYNcY73x2DSAlZXWyW2KKEjL+6TBE/0Wk02vhv0bk+q03miW3v5YNjRbdByF00k3KCbfSriRp+zWMBjFXrxqCjkbcKGDcCi0cpBtcQ8UffRu1Ozp1pKuWjt/sKlaml9f+ITXqpxIDOFJ3qOSuTB4EU25YV/p5tjYzzML43hcVASxfou8jDVyIWQS+7XRuwLpuKjdCHGvdcse3QWzXA8G8Sfy3D+9FkygOu9/5UUsOv2XDzoHquCbbfKJo5S+IJbj4t9qYAjmxD97s1dkecn7vYAbImX/IYo4CgEtKqNJvyBPseyMD4q0fa+9axJs3c9nuZxB3fWOB2CN8WuHPDmnSn2ZTny5+T8VdPHuqznDVBhZ6pGa5JfeUhYeZfac78ozJWZGypu9TYCQ3zvHVOXXAc2pimUw4uoUL/uH1GotM2Rl7jetS59e9LsykHfUsc7W/Io6IFXAfW/s+FrcU2o6RS+5clJZnHGImvFgNpAD8VnTp2lBULdlc3O2f7UeJzwdFoPZpOObiMxuldUMWoR7U1b5PwrQKy/X5GsykHO4i9/gp9d42qPqgngGSV541MMPKh2JdlqRs/CqTUlrqL9tmTEpsL0qc3oNmUA+RsvxxoKzzR3TgcYKS5LD9/fHX3tTxCbNfdLxIyFjivAbLigh7I3BuXyHxQqbgpzaY8HFmwAs0xcqXY0t4NTRpB0AkZZ09K3Hfz6K7btp5zauLWJdb5IEvyLCmuMhEpgNULDEThOu13YlNptY8viETHlJq72O1smjRgPl1Fp7Godn7/zjSX8jGgIAUaK7YRiC+wk+jrYgihjeUDI3tUOJ91jFwt/l7rrczx5Xz3oSAlY1WnrL4De0PEvkorAqSivhDIWJa5+MQ6ivNp687cRecMoLbBzcLU3lLTy7MS4RXaoQHmhXyGOws2mBnitwAm4iXDxaYn+76mxHXwJjSP8jPGs/F3CTg37Dj+WJDxIxDZqqB5ocgmyoE9KnpXozg2oX5fD+c8SQZs7nFbuTTQl782J/CQ+I2KD5Jwpa/WFFt3D2f0P4styz5/BcFQXLviBuZtZ/CnG9lFmMabJWd7NIwhEc0TX8x3PO5y1o/sd0WwroWLHWxvZCexxUoRgN1AWKmHOF7xZBTjCgz41ZcOotOiqzY5kqpEUmNj8ZNsskD8XvVVwgXiLyuOkKTwlfl3acRzRsMOHwlPX0nDkn0ICYaP6PicCM/DNTnBk+PbjipFUsJH996rEpg3rrg+9zD3gVQpkgrrin4/P1wvtUtk/pd7cAAjqVYkFXbwYACvSzqloHcU/UdDr1KtSCoc7sEB/C6h+eOK8jPl+c8W3q+TRPCRANQlsTW4z8MRiKWxSBIM96D8LRNbg3M8OMEOVC2SAneL/j1448TWwMcryE5ULZICjysr/t8TXIPdPDiAQ6haJAW0nwC/nOAabO3BAbAtFkmCscqK/0KCa/BLDw6gH1WLpMDTyoo/McE16OjBAfShapEUeFhZ8fHAJrV+8J09OIADqVokBUaJ/hPg1MpIHevBAexO1SIpcIUH5W+X2Bpc6WENWlO1SAoM9KD8Rye2Bs+Lfm3AtalaJAW6e3AAtyc0f7yG1C4P9nGCcRCSKVuK/ms4lJVOpXNMHw8OcAzViqQCylfN9mAEPROZ/2Me5j6MakVSwkcb6hS+ggjULfYw90OpUiQlLvFgBHgVuGvk8/6D+GmC0ooqRVLCRyIM5G8Sb+/49qJfCq2qbTYDgCQpUCJ7jicncFSE80XrrrGe5ns51YmkyH2eDGKWkc0im+upnuYK2YOqRFLk1x6NYrzbZcTAXka+8zTPTySuYii44dlIbE/AA8TWKEDxk4Pdse9XYkuX/YTqT5qKrebjywlghxG6UCYaZM7wOEd0Vx4q4brrbio2CxPBTbzKnCc2GFtX0BK/O7IhrzXSW1jPMFuu8WgckNESrm1WW/eF/qEAQaPVot5DoK37uUbeEL3+jgiOoq7DYCPNaRb50NZ9xXwaB0qQrRtg2z+jIOOvkvlGBoifWxDcMuxr5IkCfi+kSd8ptn8CyYCHCzCOSe5c6hucbU/zeOavjzxipIXinPZxX+dlBc/je+e8t6eJlJud63Fu1BAYJRqIrOlpHrjnHxfQ8KvLdLGPrioBLdwfKOi3qSvOMcLIBjSV8vJQgQqFc/lARUfQxsgt4ifJp9Iv6PUu2Lqy2/3jjcyNbD5waj1oKuWNBRS9bZ7hgpBIH17Z24L1xFbhLeJMXKm8LfVvH46aAvdEPBc4tesk3K0H8cgVARXrS7cLGeIMe2+xnXZQvhvNTHGn3d/I1UZeMrIwcqOvKRjvGbLi+/ctxKYVpzCf54RXh6VjLSNTEjOs1GSMO9vXBIG2zxOby2SxV5KkROCqaSkN1asgCad3jSDsrETnMk1sgRlSIq6kkXoXXOmNFFtJeGbic/lQbPoxKQmruXM2DbWYoFoZ5jFRWBS1VMCjf0oD/VGeSXiLXqTg9qIRTac8IBX068yV+lmxxU43MfJXGnmdMohmUy66Sdi02pCCxzbrV1sLPPs9S9K7gixS0CWqLc2mXKBuwKLMFPldIy2Xsx7bu3+nwS9/18R6AyUDBSW+zUSB31yB8VeB9N4bIg7i4ZYBJd/QuBUPsaYVfJw7giZTPvbJIBiGx0TNVmJN0BE4lgQe5Bfc4nZsSDZatZbbHdzZH2nkXiPfeBzLVEmvYSypB+3cF6WMxn+rNKy7EXYLjwYcN4ztRFn5R0d43XeuR6d+Es2lnKC4xwMlMnwcbX4jlZX2buT+xjcFjruqHFnTCn9P5PSPFv16Ax9I+JJwxBNVCj+/BOf9bRXXBY+XJha03d9PcdxwfnhspX3jczBNpdyg1dYzCRo+rvIuET8NTfE3h4m/Z8qIOWzj6ffsphzsfYQmksdu4DB3Fk0hB/9J96X2DcpwT1MePyL5vkt0oc/hUkVHy0pCmYA+AEiU+SJS43/RyP5SbBsvJBK9rOi8Di9o3L8XXgmSBoK6AicbeT8Co8eX7Al3Xg7Vv+8Vpbk8UOAccGX4ltK4R9Mk8gQR4C7i/865NvnIfcXaBF4D5BRoZFFiK71FwWPvIjo3A9OEj4SyZx2xpb5Gi5/EGQTckLuPa7HdJJ52XVpdmEcGGDt2GxMUxo5syY1pAqQKGCcejBwntmpuQ68SYfAXGTlI4u1mc7rS2X/XQOPvr+TAulHtyfKY3EClOiuBuf1BaQsd6nENHOtihTmcTDUnOTqApxWM5/bAc3hDYQ7XUM1Jjg5AI5J+euA5jFSYw11Uc5KjA5iqYDy9As/hAoU5PEE1J7k5AFx9TVcwns6B53GywhyeoZoTOgA6AEJ4BOARgJA8HMCbwiAgg4AkWwcwRngNyGtAkq0DuEWYCMREIJKtAzhTmArMVGCSrQM4QNJ+DDRe+BiI0AE0mA2UttB8DkzoABJ0AEDjJoAFQQgdQKIOYKiwJBgh2TqAXRSNiUVBCR1AYg4AV3j/UHQCPsuCdxWWBSd0AOqcK7ol0Hw0Bjle2BiE0AF4oYWRBaJfB5GtwUjSoIvOhw1UsAslreulG0W/GGpVc9AThM1BSSIgKWSQ2A49c6SyBBOU/x4htk33GpHPe1Pl83VNmenW4hBhe3ASGU2M9Bb7OMZXz7xZ7ivbMeJ1GOrR6GpeGcK5ThHbzh0G+XVB/zev/sj/ga/AQPelLkr5sDNAMc49I1yPtUW/X2Bs8qyEe7xEIgFn8z4VnO+1voIPS/juQDU50DmpMho/Ap1tqf55s7nolMPWEpy7z3fHkFi4qaQOYBDVP2/6GZkbqXK+7IJgMYCA5aslM/57hI9+sg7yDRf9u2QfgcLukazZL0SnaGgMMtHFN0iGoPHnXxJS1iUuMBkDO0a8Y6qvIM6zEc0gT9Y38kqCSrvMxQVWiWAN9zYyL1HjnxbRsYoUzLqJn2PhBM6NZC3R0vyrxNZvsgv4kgxBVtnYEpxdcR3XP5I1xfXZ+4ms23Ni3xCQDMG2+RYpT/R6kZFOkaxtM7FPaGN2mNe5DwDJlP4Sf7S/IW/sW0Wyvo1ckHJ+hGvUg+qfN20jVEwteUriusdGEdBHI3C2uDXBIyNW9smcxkZekHLnsZ8Q4XELpcXHS5jt/uPivwQZSYQTSm78VZV2YgxuYWeyv9ulLBH/qdPo5bcTVZ5UgWSfLzwr3lz3xUE32sPdlw/BuQOd87lWbMaZbwO4IfLfAkcD5DCg3LhW8c5Fbnc3WGw7MEL+iSHi7y4ez0dRiba+FW02dQbwmacxoS5eCvfbOB5sZuRod0afIDahqK6Xht+7nc6LYpt2Hiq80iMrADneMz0Y2rtuW9vQbLw1nSNY4GFsNyb6W6EKUEsj27kdVE9n4IjedzbSwX3hG1OtSX05ycNX/3rRKxm1tZG3lceImw5GvUn24Ov8hqJhLRU/xSJ9PEhiS2uSPR1F7x4af2eAx7Hijf04RQfwisTxWIiQYFyiaFBXFTBevE7UKkOGYBlfupGseV3JmF6T4vLH9xC9q0KWuCLZ0lzJkPAl3b3gsWs9VnqQakBy5UAlI3o0wNiRK7BQdB7AsMQ1yZILlBzAfoHGf5foBC43oSqQHLlbwYA+lXANIrsrObD9qQokRzRq/Y0KOP61RKcX339QFUiOfKpgPAMCz0GjZuHFVAWSG6jzr1GuunPgedwh5X8dSIg6TZW2z+0Dz+NqhTmMpDqQ3MD5eZGC8WwVeB7DFOZwG9WB5Aby6jWe2XYIPI/rFOZwK9WB5Aau7mYrGE/XwPO4T2EO11IdSI5MVTCe0wLP4R2FOQyhKpAc0agA/EDA8W9oZLHCHI6lKpAcGaVgPLNdPCEEh4tOJuDeVAWSI2cqGVCfQOPXqBCECkYsmEmypLOSA3hZiu+401F0SmZPEVYFIpmCOnsLlZxArwLHDYN9XGnco6kGJGeeVTKkj8WW6yqCvqJXx/AoqgBhHEBHHhL/xTWQeThb9LrltKQKkJzZXPTaT0Gu8RgP+LmR9xXH+gx/fkJ0S21Xdd3RLhLS2sgk5XH2409PiL3G0269NVb0Sm2h/dVXyuP7Uurfq5CQUoPaAB96cAJzjJwhDU8UamPkXtEL+FWXC/mzE/L/nCB+OvFCpottQLJNPeIDcBbdnOEv8jQeOCb2BSSkGqt5OGPXVoF3mtj3A5e53QH6850jtirP38S2v/7Bs5zHn5uQf6W7p+12TDKFZ39CamcVt/Uuq/F/744XhJDl0Nyd2cvoAEbw5yWkbrqIXvPNWASFQ9biT0tI/TinRMaP1OG2/EkJqT+4rru1BMb/nYTrXUhI0iCd9/6EjR/lwnrzZySk4SA/4J5Ev/x9+PMRorMTuD4h40emXxf+bITogRyBge7LGrPxI5uxPX8uQvywi+i+yddMM75dbJkzQohHcJ+OppyLIzF+tDn/tbC4JyGFsq3Yqjqh3g98Y2Qov/qEhI0NoLz4GLG59kUY/jy3A9mIy09IPPxKbE3AL8TPQ55XjQwy0oxLTUi8NHG7giuMvCYNvzmYZeRJsQ1I2/CMT0iarGtkVyPHia0MhBTjPxt5ysUQ0OTjbiPDjZxt5FCxuftNuHSkSP4X++MPoUBbrVkAAAAASUVORK5CYII=;labelPosition=right;align=left;fontFamily=Poppins;fontSource=https%3A%2F%2Ffonts.googleapis.com%2Fcss%3Ffamily%3DPoppins;" vertex="1" parent="1">
          <mxGeometry x="310" y="727.51" width="20" height="20" as="geometry" />
        </mxCell>
        <mxCell id="nycNDMPn0zWhorsji3h1-25" value="&lt;font face=&quot;Poppins&quot; data-font-src=&quot;https://fonts.googleapis.com/css?family=Poppins&quot;&gt;Local Systems Layer&lt;/font&gt;" style="rounded=1;whiteSpace=wrap;html=1;dashed=1;dashPattern=8 8;arcSize=7;verticalAlign=top;align=left;spacingLeft=4;" vertex="1" parent="1">
          <mxGeometry x="110" y="510" width="540" height="180" as="geometry" />
        </mxCell>
        <mxCell id="nycNDMPn0zWhorsji3h1-26" style="edgeStyle=orthogonalEdgeStyle;rounded=1;orthogonalLoop=1;jettySize=auto;html=1;fontFamily=Poppins;fontSource=https%3A%2F%2Ffonts.googleapis.com%2Fcss%3Ffamily%3DPoppins;fontSize=12;fontColor=default;curved=0;" edge="1" parent="1" source="nycNDMPn0zWhorsji3h1-27" target="nycNDMPn0zWhorsji3h1-31">
          <mxGeometry relative="1" as="geometry" />
        </mxCell>
        <mxCell id="nycNDMPn0zWhorsji3h1-27" value="AS400" style="html=1;outlineConnect=0;whiteSpace=wrap;fillColor=#99ffff;shape=mxgraph.archimate3.application;appType=comp;archiType=square;rounded=0;fontFamily=Poppins;fontSource=https%3A%2F%2Ffonts.googleapis.com%2Fcss%3Ffamily%3DPoppins;" vertex="1" parent="1">
          <mxGeometry x="120" y="540" width="150" height="75" as="geometry" />
        </mxCell>
        <mxCell id="nycNDMPn0zWhorsji3h1-28" style="edgeStyle=orthogonalEdgeStyle;rounded=1;orthogonalLoop=1;jettySize=auto;html=1;fontFamily=Poppins;fontSource=https%3A%2F%2Ffonts.googleapis.com%2Fcss%3Ffamily%3DPoppins;fontSize=12;fontColor=default;curved=0;" edge="1" parent="1" source="nycNDMPn0zWhorsji3h1-29" target="nycNDMPn0zWhorsji3h1-31">
          <mxGeometry relative="1" as="geometry" />
        </mxCell>
        <mxCell id="nycNDMPn0zWhorsji3h1-29" value="Document Mgmt" style="html=1;outlineConnect=0;whiteSpace=wrap;fillColor=#99ffff;shape=mxgraph.archimate3.application;appType=comp;archiType=square;rounded=0;fontFamily=Poppins;fontSource=https%3A%2F%2Ffonts.googleapis.com%2Fcss%3Ffamily%3DPoppins;" vertex="1" parent="1">
          <mxGeometry x="490" y="540" width="150" height="75" as="geometry" />
        </mxCell>
        <mxCell id="nycNDMPn0zWhorsji3h1-30" style="edgeStyle=orthogonalEdgeStyle;rounded=1;orthogonalLoop=1;jettySize=auto;html=1;curved=0;" edge="1" parent="1" source="nycNDMPn0zWhorsji3h1-31" target="nycNDMPn0zWhorsji3h1-33">
          <mxGeometry relative="1" as="geometry" />
        </mxCell>
        <mxCell id="nycNDMPn0zWhorsji3h1-31" value="&lt;font style=&quot;font-size: 18px;&quot;&gt;&lt;br&gt;&lt;/font&gt;Externalized Claims db" style="outlineConnect=0;whiteSpace=wrap;fillColor=#99ffff;shape=mxgraph.archimate3.businessObject;overflow=fill;rounded=0;fontFamily=Poppins;fontSource=https%3A%2F%2Ffonts.googleapis.com%2Fcss%3Ffamily%3DPoppins;verticalAlign=middle;spacingTop=-11;spacingBottom=0;labelPosition=center;verticalLabelPosition=middle;align=center;spacingLeft=0;spacing=0;html=1;" vertex="1" parent="1">
          <mxGeometry x="290" y="630" width="180" height="50" as="geometry" />
        </mxCell>
        <mxCell id="nycNDMPn0zWhorsji3h1-32" style="edgeStyle=orthogonalEdgeStyle;shape=connector;curved=0;rounded=1;orthogonalLoop=1;jettySize=auto;html=1;strokeColor=default;align=center;verticalAlign=middle;fontFamily=Poppins;fontSource=https%3A%2F%2Ffonts.googleapis.com%2Fcss%3Ffamily%3DPoppins;fontSize=12;fontColor=default;labelBackgroundColor=default;endArrow=classic;" edge="1" parent="1" source="nycNDMPn0zWhorsji3h1-33" target="nycNDMPn0zWhorsji3h1-35">
          <mxGeometry relative="1" as="geometry" />
        </mxCell>
        <mxCell id="nycNDMPn0zWhorsji3h1-33" value="&lt;div&gt;Source&lt;/div&gt;&lt;div&gt;Connector&lt;/div&gt;" style="shape=image;html=1;verticalAlign=top;verticalLabelPosition=bottom;labelBackgroundColor=none;imageAspect=0;aspect=fixed;image=https://cdn1.iconfinder.com/data/icons/science-technology-outline-24-px/24/Electrical_plug_plug_plug_connector_plug_in_power_plug-128.png;fontSize=11;fontFamily=Poppins;fontSource=https%3A%2F%2Ffonts.googleapis.com%2Fcss%3Ffamily%3DPoppins;imageBackground=none;imageBorder=none;arcSize=7;perimeter=rectanglePerimeter;linejoin=round;linecap=round;rounded=1;shadow=0;" vertex="1" parent="1">
          <mxGeometry x="312.5" y="760" width="55" height="55" as="geometry" />
        </mxCell>
        <mxCell id="nycNDMPn0zWhorsji3h1-34" style="edgeStyle=orthogonalEdgeStyle;rounded=1;orthogonalLoop=1;jettySize=auto;html=1;curved=0;" edge="1" parent="1" source="nycNDMPn0zWhorsji3h1-35" target="nycNDMPn0zWhorsji3h1-36">
          <mxGeometry relative="1" as="geometry">
            <Array as="points">
              <mxPoint x="565" y="788" />
            </Array>
          </mxGeometry>
        </mxCell>
        <mxCell id="nycNDMPn0zWhorsji3h1-35" value="Local&#xa;Claims&#xa;Topic" style="shape=image;verticalLabelPosition=bottom;labelBackgroundColor=none;verticalAlign=top;aspect=fixed;imageAspect=0;image=data:image/png,iVBORw0KGgoAAAANSUhEUgAAAQAAAAEACAYAAABccqhmAAAACXBIWXMAAAsSAAALEgHS3X78AAAZUklEQVR42u2debSWxZHGS4JoxBU1QHCLCgbEgPuuI7gAgwoG4aDijg4RcHfihuMSg7iMK2rQEBR3jfsWDMR1BMVdA0YRXFBBNhGRRZx+7L4zNzcX7uV+1W93v/38zqm/OOfS3V9Vvd3V1VUiRJu1jexj5FQjI4w8Y2SSkS+NzDPyjZE5Rj4x8rqRB41cZeQYI+2NrMolJCQdVjHySyPnGHnRyEIjP1QgM4zca6SfkfW4vITESVMj/Y2MN/J9hUa/PMFu4Q4jezhHQwiJYIuPr/0Xnoy+Nllm5CUj3Yw04k9ASPE0dl/8zws0/NocwTgj2/LnIKQ4tjbyQkDDrymLjVxuZA3+NIT4A+fu37iz+A8RyptGtuHPRIg++LreFqnhV5f5Rvrw5yJEjw0j2/LXJUuNnC28KSCkYloaeSsh468eILyMToCQyr78KRp/dbmUToCQhp35X0rc+Kt2Aifz5ySk/iC55o4SGH+VLDHSlT8rIfVjcImMv0q+MrIZf1pCVkwHI9+W0AFAkDXYmD8xIbWDp7cTSmr8VTKQPzMhtTOw5MYPmSv2apMQUo1mRmZ6Nj687b/PyJlGeop91ruzkU5i3/sPNfK8kUWexzGCPzch/8zFnowNtQGeMtLdyGr1HEsLI6cZ+cjTmOBgtuJPTohlXSOzPRjaa0b2rGBcqztH8DV3AYT442QPX/3LV+KLXxetjbyqPMYFRn7Gn57kDpJ+3hbdt/nHehjnmkYeVXYCp/PnJ7mzvfKX/xiPY13dxRM0jyh8J0Cy5vei+/CmiHjFJEWHxWAgyRZ8/d5UMiZUA25S0Lh3dkcNjXHzoRDJFly3LRGdAhw7FTz24UoO4BGqAcmVg5WM6MEAY28lOm8WUM6c7wNIllyg5AD2CTT+20WnXsAmVAWSI/cqGNDHAb+gXZUcWBeqAsmRVxSM548Bx4/cAI0S5QOoCiRHPlUwnhMDz0Hj+fLFVAWSG0jTnadgPJ0Cz2O0whyGUx1IbqCbr0YUvX3geVytMIeRVAeSG2uJzrv70Jl0wxTmcBvVgeTGGko7gI6B53GdpB3IJCQIqP+nUQOgW+B53K8wh2upDiRHpioYzxkBx4+3DO8pzGEIVYHkiEbDzwcDjr+56DwKOoaqQHLkT6JTZbdpoPEfJTqZgHtSFUiOnKFkQEcEGv9Y0WkbxtJgJEv2UXIAqNf3k4LHvoPYgh6Vjv1DYVUgkilri14bsL4FjhsG+xelcY+iGpCcGadkSNML3Eprnf0h/agCJGdOUzSmJ8TmF/gEqcfzlMb7ndibBEKyZTPRKQtWJTd7jAdsamSK4lif5s9PiMgY0a23j8c1qymPsZ2y8RcdtyAkWg4R/dZbLxrZQmFsCPgdZmSO8vg+N/LTxH6nRi7OghuQHmIbsKCj8ylGTjJytNgejHifsb7wdoPUE5zbJ3twAvONnC/2tqEhbGPkMbF1+7THdn4CvwvKrO/mxvqk2EBrfa8+caybKjZTE3GeDlL8VS1JiGM8GFmVoO34Ve7LVVf9wHWM9HKGv9TTeGaJbYce61d+TxdL+VJxzsvcEepy51gJ+ZddwNsenUD1Mtz4ml3nvmy/FVuSC09yUd7r2wLG8J8Rrj+OI8cX9BtgF/GckZ7cFZDq7Cc62XUxy+TIzv7YER1n5KNA6/GGixswXkB+5LYSG//3zsnFwi5GJkawLsvcrmxLqj9B9HhaSR3ADZGsMbocXya6+RdaQduBLg5BMmZv0akXGJO8LrYMWmg2E51S5j4FNwfr0QzyZrD4uX4LITMi2d4iuv9lImv2Ho8EeYOg0DUlMP4FRvaKYD2RuPNtYmuHG5vtaQr5giuiUQkbPx77HBTBOvZK+EiFnIkdaQr5gmuqWxP98sdg/F2cI0r9CNWOppAviApfmlBMYKYLZIYG6bdzSxJHQeUkPp3OHBTP+CZyRUViS+sI1grXqf+Qct2k/FX813sgkYOCHK9LnEk+N4ltGR5DAPV+KWcuxYU0AYK3/v8l8US1sT3tGtH6HCXlzaZEH4ZdaAIEtDFyn4R7P4Dz9XkSri9BbTR3MYgyv6fAMasJ1Z9UsYNzBIuluCDfJUY2jHAtbi5oDRCL+buRZ8VWSH7eyAdS3I3DIKo9qckv3BnRR/BriVP2YyM559dGO89OENl56GO4k9T+ohGxBxRfQb8HvPv/1ONYkNG4DlWe1AYSiLYT+97/+QqUbLoLpp1oZOME5n2nJ2Ob4GIcK/t2H7GaI93OwMe4zqaqk7poXYGCbZ3Y7kc72w/b/JOk8qIdeAQ1VPRfH34m6dVVJAk5gJSyzy5VNi4UCOmgPMZuol9c9TCqOMndAayqfN6e7PHIg7z+WaKbHERI1g6gk3JwbQvP4/030bstQNCzFdWc5OwAtJ5Nowpyl4LGfKqi0+pPNSe5OgBcvU1SMqQRBY4bgcUXlMZ9P9Wc5OoAWopO/4KvjbQoeOxoOqKRxTldWF6cZOoADlT6il4baPcyVmHseCa+OVWd5OgAzlUyoA6Bxn+YkgM7mKpOcnQAIxWM530J15gD1X8XKszhdKo6ydEBaGyhbw08h/EKc7ieqk5ydADvKBjP4MBzGKEwh3uo6iQ3B4Btu0YXpZ6B53GewhyepKqT3BwAiqVOVzCeToHnMViYEkzoAII5gH0Dz+MUhTmMoaqTHGMAGm29eweew0UKc3iMqk5ydABvKBjPbwPPYbTCHO6gqpMcHcATCsZzb+A5vKcwh6uo6qQ22legVGjqGXuO+Y0KxoMmnKEabmwiOm8ZTqKqE7ChO9MiMWSiVNZJaJkzDlwxIeV2d7F17mJCI4IO6Rxo/KcojX9fqn6+tHKG8Jz474I7051ZD4rEGewl6T6pRePXd0WnjkELmkFeYGv+70YekXCtrz8XW/56y4DrgDLcGh2SULCz6AdBfZR+B5SBX4UmkQfoCHOM0pdDs10VvqDbBVoTrcIaSKZpVNCY1xKdK0zILTSL8tPIne3fj8jwa9uKwhFsVeC6bGDkRcU5nFLAmFdxRqs15l40j3LTwZ3vU+ldh4KXw9xXzif7G/lEeew4Tu3nedwDxQZYNcY73x2DSAlZXWyW2KKEjL+6TBE/0Wk02vhv0bk+q03miW3v5YNjRbdByF00k3KCbfSriRp+zWMBjFXrxqCjkbcKGDcCi0cpBtcQ8UffRu1Ozp1pKuWjt/sKlaml9f+ITXqpxIDOFJ3qOSuTB4EU25YV/p5tjYzzML43hcVASxfou8jDVyIWQS+7XRuwLpuKjdCHGvdcse3QWzXA8G8Sfy3D+9FkygOu9/5UUsOv2XDzoHquCbbfKJo5S+IJbj4t9qYAjmxD97s1dkecn7vYAbImX/IYo4CgEtKqNJvyBPseyMD4q0fa+9axJs3c9nuZxB3fWOB2CN8WuHPDmnSn2ZTny5+T8VdPHuqznDVBhZ6pGa5JfeUhYeZfac78ozJWZGypu9TYCQ3zvHVOXXAc2pimUw4uoUL/uH1GotM2Rl7jetS59e9LsykHfUsc7W/Io6IFXAfW/s+FrcU2o6RS+5clJZnHGImvFgNpAD8VnTp2lBULdlc3O2f7UeJzwdFoPZpOObiMxuldUMWoR7U1b5PwrQKy/X5GsykHO4i9/gp9d42qPqgngGSV541MMPKh2JdlqRs/CqTUlrqL9tmTEpsL0qc3oNmUA+RsvxxoKzzR3TgcYKS5LD9/fHX3tTxCbNfdLxIyFjivAbLigh7I3BuXyHxQqbgpzaY8HFmwAs0xcqXY0t4NTRpB0AkZZ09K3Hfz6K7btp5zauLWJdb5IEvyLCmuMhEpgNULDEThOu13YlNptY8viETHlJq72O1smjRgPl1Fp7Godn7/zjSX8jGgIAUaK7YRiC+wk+jrYgihjeUDI3tUOJ91jFwt/l7rrczx5Xz3oSAlY1WnrL4De0PEvkorAqSivhDIWJa5+MQ6ivNp687cRecMoLbBzcLU3lLTy7MS4RXaoQHmhXyGOws2mBnitwAm4iXDxaYn+76mxHXwJjSP8jPGs/F3CTg37Dj+WJDxIxDZqqB5ocgmyoE9KnpXozg2oX5fD+c8SQZs7nFbuTTQl782J/CQ+I2KD5Jwpa/WFFt3D2f0P4styz5/BcFQXLviBuZtZ/CnG9lFmMabJWd7NIwhEc0TX8x3PO5y1o/sd0WwroWLHWxvZCexxUoRgN1AWKmHOF7xZBTjCgz41ZcOotOiqzY5kqpEUmNj8ZNsskD8XvVVwgXiLyuOkKTwlfl3acRzRsMOHwlPX0nDkn0ICYaP6PicCM/DNTnBk+PbjipFUsJH996rEpg3rrg+9zD3gVQpkgrrin4/P1wvtUtk/pd7cAAjqVYkFXbwYACvSzqloHcU/UdDr1KtSCoc7sEB/C6h+eOK8jPl+c8W3q+TRPCRANQlsTW4z8MRiKWxSBIM96D8LRNbg3M8OMEOVC2SAneL/j1448TWwMcryE5ULZICjysr/t8TXIPdPDiAQ6haJAW0nwC/nOAabO3BAbAtFkmCscqK/0KCa/BLDw6gH1WLpMDTyoo/McE16OjBAfShapEUeFhZ8fHAJrV+8J09OIADqVokBUaJ/hPg1MpIHevBAexO1SIpcIUH5W+X2Bpc6WENWlO1SAoM9KD8Rye2Bs+Lfm3AtalaJAW6e3AAtyc0f7yG1C4P9nGCcRCSKVuK/ms4lJVOpXNMHw8OcAzViqQCylfN9mAEPROZ/2Me5j6MakVSwkcb6hS+ggjULfYw90OpUiQlLvFgBHgVuGvk8/6D+GmC0ooqRVLCRyIM5G8Sb+/49qJfCq2qbTYDgCQpUCJ7jicncFSE80XrrrGe5ns51YmkyH2eDGKWkc0im+upnuYK2YOqRFLk1x6NYrzbZcTAXka+8zTPTySuYii44dlIbE/AA8TWKEDxk4Pdse9XYkuX/YTqT5qKrebjywlghxG6UCYaZM7wOEd0Vx4q4brrbio2CxPBTbzKnCc2GFtX0BK/O7IhrzXSW1jPMFuu8WgckNESrm1WW/eF/qEAQaPVot5DoK37uUbeEL3+jgiOoq7DYCPNaRb50NZ9xXwaB0qQrRtg2z+jIOOvkvlGBoifWxDcMuxr5IkCfi+kSd8ptn8CyYCHCzCOSe5c6hucbU/zeOavjzxipIXinPZxX+dlBc/je+e8t6eJlJud63Fu1BAYJRqIrOlpHrjnHxfQ8KvLdLGPrioBLdwfKOi3qSvOMcLIBjSV8vJQgQqFc/lARUfQxsgt4ifJp9Iv6PUu2Lqy2/3jjcyNbD5waj1oKuWNBRS9bZ7hgpBIH17Z24L1xFbhLeJMXKm8LfVvH46aAvdEPBc4tesk3K0H8cgVARXrS7cLGeIMe2+xnXZQvhvNTHGn3d/I1UZeMrIwcqOvKRjvGbLi+/ctxKYVpzCf54RXh6VjLSNTEjOs1GSMO9vXBIG2zxOby2SxV5KkROCqaSkN1asgCad3jSDsrETnMk1sgRlSIq6kkXoXXOmNFFtJeGbic/lQbPoxKQmruXM2DbWYoFoZ5jFRWBS1VMCjf0oD/VGeSXiLXqTg9qIRTac8IBX068yV+lmxxU43MfJXGnmdMohmUy66Sdi02pCCxzbrV1sLPPs9S9K7gixS0CWqLc2mXKBuwKLMFPldIy2Xsx7bu3+nwS9/18R6AyUDBSW+zUSB31yB8VeB9N4bIg7i4ZYBJd/QuBUPsaYVfJw7giZTPvbJIBiGx0TNVmJN0BE4lgQe5Bfc4nZsSDZatZbbHdzZH2nkXiPfeBzLVEmvYSypB+3cF6WMxn+rNKy7EXYLjwYcN4ztRFn5R0d43XeuR6d+Es2lnKC4xwMlMnwcbX4jlZX2buT+xjcFjruqHFnTCn9P5PSPFv16Ax9I+JJwxBNVCj+/BOf9bRXXBY+XJha03d9PcdxwfnhspX3jczBNpdyg1dYzCRo+rvIuET8NTfE3h4m/Z8qIOWzj6ffsphzsfYQmksdu4DB3Fk0hB/9J96X2DcpwT1MePyL5vkt0oc/hUkVHy0pCmYA+AEiU+SJS43/RyP5SbBsvJBK9rOi8Di9o3L8XXgmSBoK6AicbeT8Co8eX7Al3Xg7Vv+8Vpbk8UOAccGX4ltK4R9Mk8gQR4C7i/865NvnIfcXaBF4D5BRoZFFiK71FwWPvIjo3A9OEj4SyZx2xpb5Gi5/EGQTckLuPa7HdJJ52XVpdmEcGGDt2GxMUxo5syY1pAqQKGCcejBwntmpuQ68SYfAXGTlI4u1mc7rS2X/XQOPvr+TAulHtyfKY3EClOiuBuf1BaQsd6nENHOtihTmcTDUnOTqApxWM5/bAc3hDYQ7XUM1Jjg5AI5J+euA5jFSYw11Uc5KjA5iqYDy9As/hAoU5PEE1J7k5AFx9TVcwns6B53GywhyeoZoTOgA6AEJ4BOARgJA8HMCbwiAgg4AkWwcwRngNyGtAkq0DuEWYCMREIJKtAzhTmArMVGCSrQM4QNJ+DDRe+BiI0AE0mA2UttB8DkzoABJ0AEDjJoAFQQgdQKIOYKiwJBgh2TqAXRSNiUVBCR1AYg4AV3j/UHQCPsuCdxWWBSd0AOqcK7ol0Hw0Bjle2BiE0AF4oYWRBaJfB5GtwUjSoIvOhw1UsAslreulG0W/GGpVc9AThM1BSSIgKWSQ2A49c6SyBBOU/x4htk33GpHPe1Pl83VNmenW4hBhe3ASGU2M9Bb7OMZXz7xZ7ivbMeJ1GOrR6GpeGcK5ThHbzh0G+XVB/zev/sj/ga/AQPelLkr5sDNAMc49I1yPtUW/X2Bs8qyEe7xEIgFn8z4VnO+1voIPS/juQDU50DmpMho/Ap1tqf55s7nolMPWEpy7z3fHkFi4qaQOYBDVP2/6GZkbqXK+7IJgMYCA5aslM/57hI9+sg7yDRf9u2QfgcLukazZL0SnaGgMMtHFN0iGoPHnXxJS1iUuMBkDO0a8Y6qvIM6zEc0gT9Y38kqCSrvMxQVWiWAN9zYyL1HjnxbRsYoUzLqJn2PhBM6NZC3R0vyrxNZvsgv4kgxBVtnYEpxdcR3XP5I1xfXZ+4ms23Ni3xCQDMG2+RYpT/R6kZFOkaxtM7FPaGN2mNe5DwDJlP4Sf7S/IW/sW0Wyvo1ckHJ+hGvUg+qfN20jVEwteUriusdGEdBHI3C2uDXBIyNW9smcxkZekHLnsZ8Q4XELpcXHS5jt/uPivwQZSYQTSm78VZV2YgxuYWeyv9ulLBH/qdPo5bcTVZ5UgWSfLzwr3lz3xUE32sPdlw/BuQOd87lWbMaZbwO4IfLfAkcD5DCg3LhW8c5Fbnc3WGw7MEL+iSHi7y4ez0dRiba+FW02dQbwmacxoS5eCvfbOB5sZuRod0afIDahqK6Xht+7nc6LYpt2Hiq80iMrADneMz0Y2rtuW9vQbLw1nSNY4GFsNyb6W6EKUEsj27kdVE9n4IjedzbSwX3hG1OtSX05ycNX/3rRKxm1tZG3lceImw5GvUn24Ov8hqJhLRU/xSJ9PEhiS2uSPR1F7x4af2eAx7Hijf04RQfwisTxWIiQYFyiaFBXFTBevE7UKkOGYBlfupGseV3JmF6T4vLH9xC9q0KWuCLZ0lzJkPAl3b3gsWs9VnqQakBy5UAlI3o0wNiRK7BQdB7AsMQ1yZILlBzAfoHGf5foBC43oSqQHLlbwYA+lXANIrsrObD9qQokRzRq/Y0KOP61RKcX339QFUiOfKpgPAMCz0GjZuHFVAWSG6jzr1GuunPgedwh5X8dSIg6TZW2z+0Dz+NqhTmMpDqQ3MD5eZGC8WwVeB7DFOZwG9WB5Aby6jWe2XYIPI/rFOZwK9WB5Aau7mYrGE/XwPO4T2EO11IdSI5MVTCe0wLP4R2FOQyhKpAc0agA/EDA8W9oZLHCHI6lKpAcGaVgPLNdPCEEh4tOJuDeVAWSI2cqGVCfQOPXqBCECkYsmEmypLOSA3hZiu+401F0SmZPEVYFIpmCOnsLlZxArwLHDYN9XGnco6kGJGeeVTKkj8WW6yqCvqJXx/AoqgBhHEBHHhL/xTWQeThb9LrltKQKkJzZXPTaT0Gu8RgP+LmR9xXH+gx/fkJ0S21Xdd3RLhLS2sgk5XH2409PiL3G0269NVb0Sm2h/dVXyuP7Uurfq5CQUoPaAB96cAJzjJwhDU8UamPkXtEL+FWXC/mzE/L/nCB+OvFCpottQLJNPeIDcBbdnOEv8jQeOCb2BSSkGqt5OGPXVoF3mtj3A5e53QH6850jtirP38S2v/7Bs5zHn5uQf6W7p+12TDKFZ39CamcVt/Uuq/F/744XhJDl0Nyd2cvoAEbw5yWkbrqIXvPNWASFQ9biT0tI/TinRMaP1OG2/EkJqT+4rru1BMb/nYTrXUhI0iCd9/6EjR/lwnrzZySk4SA/4J5Ev/x9+PMRorMTuD4h40emXxf+bITogRyBge7LGrPxI5uxPX8uQvywi+i+yddMM75dbJkzQohHcJ+OppyLIzF+tDn/tbC4JyGFsq3Yqjqh3g98Y2Qov/qEhI0NoLz4GLG59kUY/jy3A9mIy09IPPxKbE3AL8TPQ55XjQwy0oxLTUi8NHG7giuMvCYNvzmYZeRJsQ1I2/CMT0iarGtkVyPHia0MhBTjPxt5ysUQ0OTjbiPDjZxt5FCxuftNuHSkSP4X++MPoUBbrVkAAAAASUVORK5CYII=;labelPosition=center;align=center;fontFamily=Poppins;fontSource=https%3A%2F%2Ffonts.googleapis.com%2Fcss%3Ffamily%3DPoppins;fontSize=11;fontColor=light-dark(#000000, #ffa0a0);fontStyle=0" vertex="1" parent="1">
          <mxGeometry x="402.5" y="763.75" width="47.5" height="47.5" as="geometry" />
        </mxCell>
        <mxCell id="nycNDMPn0zWhorsji3h1-36" value="Synergy Claims&lt;div&gt;Adapter&lt;/div&gt;" style="html=1;outlineConnect=0;whiteSpace=wrap;fillColor=#99ffff;shape=mxgraph.archimate3.application;appType=comp;archiType=square;fontFamily=Poppins;fontSource=https%3A%2F%2Ffonts.googleapis.com%2Fcss%3Ffamily%3DPoppins;" vertex="1" parent="1">
          <mxGeometry x="490" y="910" width="150" height="75" as="geometry" />
        </mxCell>
        <mxCell id="nycNDMPn0zWhorsji3h1-37" style="edgeStyle=orthogonalEdgeStyle;rounded=0;orthogonalLoop=1;jettySize=auto;html=1;" edge="1" parent="1" source="nycNDMPn0zWhorsji3h1-38" target="nycNDMPn0zWhorsji3h1-40">
          <mxGeometry relative="1" as="geometry" />
        </mxCell>
        <mxCell id="nycNDMPn0zWhorsji3h1-38" value="Synergy UI" style="html=1;outlineConnect=0;whiteSpace=wrap;fillColor=#99ffff;shape=mxgraph.archimate3.application;appType=interface;archiType=square;fontFamily=Poppins;fontSource=https%3A%2F%2Ffonts.googleapis.com%2Fcss%3Ffamily%3DPoppins;" vertex="1" parent="1">
          <mxGeometry x="140" y="910" width="150" height="75" as="geometry" />
        </mxCell>
        <mxCell id="nycNDMPn0zWhorsji3h1-39" style="edgeStyle=orthogonalEdgeStyle;rounded=0;orthogonalLoop=1;jettySize=auto;html=1;" edge="1" parent="1" source="nycNDMPn0zWhorsji3h1-40" target="nycNDMPn0zWhorsji3h1-36">
          <mxGeometry relative="1" as="geometry" />
        </mxCell>
        <mxCell id="nycNDMPn0zWhorsji3h1-40" value="&lt;font face=&quot;Poppins&quot;&gt;Synergy&lt;br&gt;Config db&lt;/font&gt;" style="shape=cylinder3;whiteSpace=wrap;html=1;boundedLbl=1;backgroundOutline=1;size=15;" vertex="1" parent="1">
          <mxGeometry x="350" y="912.5" width="77.5" height="70" as="geometry" />
        </mxCell>
        <mxCell id="nycNDMPn0zWhorsji3h1-41" value="&lt;font face=&quot;Poppins&quot;&gt;Synergy&lt;br&gt;Claims db&lt;/font&gt;" style="shape=cylinder3;whiteSpace=wrap;html=1;boundedLbl=1;backgroundOutline=1;size=15;" vertex="1" parent="1">
          <mxGeometry x="350" y="1020" width="77.5" height="70" as="geometry" />
        </mxCell>
        <mxCell id="nycNDMPn0zWhorsji3h1-42" style="edgeStyle=orthogonalEdgeStyle;rounded=1;orthogonalLoop=1;jettySize=auto;html=1;entryX=0.5;entryY=1;entryDx=0;entryDy=0;entryPerimeter=0;curved=0;" edge="1" parent="1" source="nycNDMPn0zWhorsji3h1-41" target="nycNDMPn0zWhorsji3h1-38">
          <mxGeometry relative="1" as="geometry" />
        </mxCell>
      </root>
    </mxGraphModel>
  </diagram>
</mxfile>
